M48
; DRILL file {KiCad 5.1.5-52549c5~86~ubuntu19.10.1} date Wed 06 May 2020 04:47:43 PM PDT
; FORMAT={-:-/ absolute / inch / decimal}
; #@! TF.CreationDate,2020-05-06T16:47:43-07:00
; #@! TF.GenerationSoftware,Kicad,Pcbnew,5.1.5-52549c5~86~ubuntu19.10.1
; #@! TF.FileFunction,Plated,1,2,PTH
FMAT,2
INCH
T1C0.0157
T2C0.0394
T3C0.0591
T4C0.0669
%
G90
G05
T1
X0.63Y-0.55
X0.64Y-1.34
X0.68Y-1.17
X0.72Y-0.7
X0.84Y-1.17
X1.0Y-1.17
X1.01Y-0.95
X1.09Y-1.3
X1.15Y-1.17
X1.1711Y-0.6489
X1.2Y-0.95
X1.26Y-0.69
X1.27Y-0.79
X1.41Y-0.55
X1.44Y-1.31
X1.45Y-1.19
X1.62Y-0.88
X1.64Y-0.65
X1.64Y-1.07
X1.67Y-1.21
X1.7102Y-1.1302
X1.74Y-1.33
X1.97Y-1.27
X2.11Y-0.68
X2.11Y-1.16
X2.17Y-0.52
X2.17Y-1.08
X2.2Y-0.92
X2.2Y-0.96
X2.24Y-1.06
X2.24Y-1.14
X2.24Y-1.22
X2.24Y-1.36
X2.2485Y-0.7421
X2.2715Y-0.7102
X2.31Y-0.68
X2.31Y-0.96
X2.32Y-1.06
X2.32Y-1.14
X2.32Y-1.22
X2.35Y-0.96
X2.3873Y-0.9728
X2.4Y-1.06
X2.4Y-1.14
X2.4Y-1.22
X2.44Y-0.69
X2.51Y-1.36
X2.52Y-0.7664
X2.52Y-0.8077
X2.52Y-0.93
X2.63Y-1.1
X2.82Y-1.13
X2.82Y-1.36
X2.85Y-0.66
X2.8598Y-0.5246
X2.87Y-0.85
X2.93Y-0.6
X3.08Y-0.89
X3.12Y-1.13
X3.24Y-0.9451
X3.24Y-0.9864
X3.25Y-0.84
X3.25Y-1.0474
X3.3Y-0.54
X3.36Y-1.36
X3.62Y-0.65
X3.63Y-1.29
T2
X1.84Y-0.57
X1.94Y-0.57
X2.04Y-0.57
X0.86Y-1.28
X0.96Y-1.28
X0.82Y-0.59
X0.82Y-0.69
X0.92Y-0.59
X0.92Y-0.69
X1.02Y-0.59
X1.02Y-0.69
X3.46Y-0.55
X3.56Y-0.55
T3
X0.77Y-0.95
T4
X0.67Y-0.85
X0.67Y-1.05
X0.87Y-0.85
X0.87Y-1.05
T0
M30
